<?xml version="1.0" encoding="iso-8859-1"?>
<!-- Uploaded to: SVG Repo, www.svgrepo.com, Generator: SVG Repo Mixer Tools -->
<svg height="800px" width="800px" version="1.1" id="Layer_1" xmlns="http://www.w3.org/2000/svg" xmlns:xlink="http://www.w3.org/1999/xlink" 
	 viewBox="0 0 512 512" xml:space="preserve">
<g transform="translate(1 2)">
	<polygon style="fill:#FFFFFF;" points="7.828,148.51 502.172,148.51 502.172,430.993 7.828,430.993 	"/>
	<path style="fill:#0096E6;" d="M511,439.821H-1V139.683h512V439.821z M16.655,422.166h476.69V157.338H16.655V422.166z"/>
	<polygon style="fill:#D0E8F9;" points="466.862,148.51 25.483,148.51 25.483,113.2 	"/>
	<path style="fill:#0096E6;" d="M466.862,157.338H16.655V103.49l451.09,36.193L466.862,157.338z M34.31,139.683h211.862
		L34.31,122.91V139.683z"/>
	<path style="fill:#FFFFFF;" d="M369.759,289.752c0,63.559-51.2,114.759-114.759,114.759s-114.759-51.2-114.759-114.759
		S191.441,174.993,255,174.993S369.759,226.193,369.759,289.752L369.759,289.752z"/>
	<path style="fill:#0096E6;" d="M255,413.338c-67.972,0-123.586-55.614-123.586-123.586S187.028,166.166,255,166.166
		s123.586,55.614,123.586,123.586S322.972,413.338,255,413.338z M255,183.821c-58.262,0-105.931,47.669-105.931,105.931
		S196.738,395.683,255,395.683s105.931-47.669,105.931-105.931S313.262,183.821,255,183.821z"/>
	<path style="fill:#D0E8F9;" d="M194.09,386.855c-32.662-20.303-53.848-56.497-53.848-97.103c0-40.607,21.186-76.8,53.848-97.103
		h-89.159c0,1.766,0,2.648,0,4.414c0,26.483-22.069,48.552-48.552,48.552c-1.766,0-2.648,0-4.414,0v88.276c1.766,0,2.648,0,4.414,0
		c26.483,0,48.552,22.069,48.552,48.552c0,1.766,0,2.648,0,4.414H194.09L194.09,386.855z"/>
	<path style="fill:#0096E6;" d="M224.986,395.683H95.221l0.883-9.71c0-0.883,0-2.648,0-3.531c0-22.069-17.655-39.724-39.724-39.724
		c-0.883,0-2.648,0-3.531,0l-9.71,0.883V235.903l9.71,0.883c0.883,0,2.648,0,3.531,0c22.069,0,39.724-17.655,39.724-39.724
		c0-0.883,0-2.648,0-3.531l-0.883-9.71h129.766l-25.6,15.89c-30.897,19.421-49.434,52.966-49.434,90.041
		s18.538,69.738,49.434,90.041L224.986,395.683z M113.759,378.028h54.731c-23.834-22.952-37.076-54.731-37.076-88.276
		s13.241-65.324,37.076-88.276h-54.731c-1.766,28.248-24.717,50.317-52.966,52.966v70.621
		C89.041,327.71,111.11,349.779,113.759,378.028z"/>
	<path style="fill:#D0E8F9;" d="M453.621,245.614c-26.483,0-48.552-22.069-48.552-48.552c0-1.766,0-2.648,0-4.414H315.91
		c32.662,20.303,53.848,56.497,53.848,97.103c0,40.607-21.186,76.8-53.848,97.103h89.159c0-1.766,0-2.648,0-4.414
		c0-26.483,22.069-48.552,48.552-48.552c1.766,0,2.648,0,4.414,0v-88.276C456.269,245.614,455.386,245.614,453.621,245.614
		L453.621,245.614z"/>
	<path style="fill:#0096E6;" d="M414.779,395.683H285.014l25.6-15.89c30.897-19.421,49.434-52.966,49.434-90.041
		c0-36.193-18.538-69.738-49.434-90.041l-25.6-15.89h129.766l-0.883,9.71c0,0.883,0,2.648,0,3.531
		c0,22.069,17.655,39.724,39.724,39.724c0.883,0,2.648,0,3.531,0l9.71-0.883V343.6l-9.71-0.883c-0.883,0-2.648,0-3.531,0
		c-22.069,0-39.724,17.655-39.724,39.724c0,0.883,0,2.648,0,3.531L414.779,395.683z M341.51,378.028h54.731
		c1.766-28.248,24.717-50.317,52.966-52.966v-70.621c-28.248-1.766-50.317-24.717-52.966-52.966H341.51
		c23.834,22.952,37.076,54.731,37.076,88.276S365.345,355.076,341.51,378.028z"/>
	<path style="fill:#FFFFFF;" d="M56.379,219.131c-12.359,0-22.069-9.71-22.069-22.069c0-12.359,9.71-22.069,22.069-22.069
		s22.069,9.71,22.069,22.069C78.448,209.421,68.738,219.131,56.379,219.131L56.379,219.131z"/>
	<path style="fill:#0096E6;" d="M56.379,227.959c-16.772,0-30.897-14.124-30.897-30.897s14.124-30.897,30.897-30.897
		s30.897,14.124,30.897,30.897S73.152,227.959,56.379,227.959z M56.379,183.821c-7.062,0-13.241,6.179-13.241,13.241
		s6.179,13.241,13.241,13.241s13.241-6.179,13.241-13.241S63.441,183.821,56.379,183.821z"/>
	<path style="fill:#FFFFFF;" d="M453.621,219.131c-12.359,0-22.069-9.71-22.069-22.069c0-12.359,9.71-22.069,22.069-22.069
		c12.359,0,22.069,9.71,22.069,22.069C475.69,209.421,465.979,219.131,453.621,219.131L453.621,219.131z"/>
	<path style="fill:#0096E6;" d="M453.621,227.959c-16.772,0-30.897-14.124-30.897-30.897s14.124-30.897,30.897-30.897
		s30.897,14.124,30.897,30.897S470.393,227.959,453.621,227.959z M453.621,183.821c-7.062,0-13.241,6.179-13.241,13.241
		s6.179,13.241,13.241,13.241c7.062,0,13.241-6.179,13.241-13.241S460.683,183.821,453.621,183.821z"/>
	<path style="fill:#FFFFFF;" d="M56.379,404.51c-12.359,0-22.069-9.71-22.069-22.069s9.71-22.069,22.069-22.069
		s22.069,9.71,22.069,22.069S68.738,404.51,56.379,404.51L56.379,404.51z"/>
	<path style="fill:#0096E6;" d="M56.379,413.338c-16.772,0-30.897-14.124-30.897-30.897s14.124-30.897,30.897-30.897
		s30.897,14.124,30.897,30.897S73.152,413.338,56.379,413.338z M56.379,369.2c-7.062,0-13.241,6.179-13.241,13.241
		s6.179,13.241,13.241,13.241s13.241-6.179,13.241-13.241S63.441,369.2,56.379,369.2z"/>
	<path style="fill:#FFFFFF;" d="M453.621,404.51c-12.359,0-22.069-9.71-22.069-22.069s9.71-22.069,22.069-22.069
		c12.359,0,22.069,9.71,22.069,22.069S465.979,404.51,453.621,404.51L453.621,404.51z"/>
	<path style="fill:#0096E6;" d="M453.621,413.338c-16.772,0-30.897-14.124-30.897-30.897s14.124-30.897,30.897-30.897
		s30.897,14.124,30.897,30.897S470.393,413.338,453.621,413.338z M453.621,369.2c-7.062,0-13.241,6.179-13.241,13.241
		s6.179,13.241,13.241,13.241c7.062,0,13.241-6.179,13.241-13.241S460.683,369.2,453.621,369.2z"/>
	<polygon style="fill:#D0E8F9;" points="51.966,77.89 51.966,114.966 466.862,148.51 493.345,148.51 	"/>
	<path style="fill:#0096E6;" d="M493.345,157.338h-26.483L43.138,123.793V68.179l451.972,71.503L493.345,157.338z M60.793,107.021
		l236.579,18.538L60.793,88.483V107.021z"/>
	<path style="fill:#D0E8F9;" d="M304.434,316.234c6.179-1.766,10.593-7.945,10.593-15.007v-7.945c0-6.179-3.531-10.593-7.945-13.241
		c-3.531-29.131-22.069-40.607-52.966-40.607c-1.766,0-2.648,0-4.414,0c-10.593,0.883-21.186-0.883-30.014-7.062
		c-3.531-2.648-7.062-5.297-8.828-7.945c-0.883-0.883-2.648-0.883-2.648,0.883c0,2.648,0.883,6.179,1.766,8.828
		c2.648,12.359,0.883,10.593-3.531,22.952c-2.648,7.062-4.414,14.124-5.297,22.069c-5.297,2.648-7.945,7.945-7.945,13.241v7.945
		c0,7.062,4.414,12.359,10.593,15.007c4.414,15.89,12.359,28.248,27.366,34.428v8.828c0,2.648-0.883,4.414-3.531,5.297
		l-30.014,15.007c-2.648,1.766-4.414,3.531-6.179,5.297c18.538,12.359,40.607,19.421,64.441,19.421
		c22.952,0,44.138-7.062,61.793-18.538c-1.766-2.648-5.297-5.297-7.945-6.179L280.6,363.903c-1.766-0.883-3.531-2.648-3.531-5.297
		v-8.828C291.193,344.483,300.021,332.124,304.434,316.234L304.434,316.234z"/>
	<path style="fill:#0096E6;" d="M255,413.338c-24.717,0-48.552-7.062-68.855-21.186l-8.828-5.297l7.062-7.945
		c2.648-3.531,6.179-5.297,8.828-7.062l28.248-14.124v-1.766c-12.359-7.062-21.186-18.538-25.6-33.545
		c-7.945-4.414-12.359-12.359-12.359-21.186v-7.945c0-7.062,3.531-14.124,8.828-18.538c0.883-7.062,2.648-14.124,5.297-20.303
		c0.883-2.648,1.766-5.297,2.648-6.179c1.766-4.414,1.766-4.414,0.883-11.476c-0.883-3.531-0.883-7.062-1.766-9.71
		c-0.883-4.414,1.766-8.828,6.179-10.593c4.414-1.766,8.828-0.883,12.359,3.531c1.766,1.766,3.531,3.531,7.062,6.179
		c7.945,5.297,17.655,6.179,23.834,5.297c1.766,0,3.531,0,5.297,0c43.255,0,57.379,22.952,61.793,44.138
		c5.297,4.414,8.828,11.476,8.828,18.538v7.945c0,8.828-4.414,16.772-12.359,21.186c-5.297,15.007-13.241,26.483-25.6,33.545v1.766
		l27.366,14.124c4.414,1.766,7.945,5.297,10.593,8.828l6.179,7.945l-7.945,5.297C301.786,406.276,278.835,413.338,255,413.338z
		 M207.331,384.207c28.248,14.124,63.559,15.007,92.69,0.883l-24.717-12.359c-5.297-2.648-7.945-7.945-7.945-13.241v-15.007
		l5.297-2.648c11.476-5.297,18.538-14.124,22.952-28.248l0.883-4.414l4.414-1.766c2.648-0.883,4.414-3.531,4.414-6.179v-7.945
		c0-2.648-1.766-4.414-3.531-5.297l-4.414-1.766l-0.883-4.414c-2.648-22.952-16.772-32.662-44.138-32.662c-0.883,0-2.648,0-3.531,0
		c-11.476,0.883-21.186-0.883-30.897-5.297c0,4.414-0.883,7.945-3.531,13.241c-0.883,1.766-1.766,3.531-2.648,6.179
		c-2.648,6.179-3.531,12.359-4.414,19.421l-0.883,4.414l-4.414,1.766c-1.766,0.883-3.531,3.531-3.531,5.297v7.945
		c0,2.648,1.766,5.297,4.414,6.179l4.414,1.766l0.883,4.414c3.531,14.124,11.476,23.835,22.069,28.248l5.297,2.648v15.007
		c0,5.297-3.531,10.593-7.945,13.241L207.331,384.207z"/>
</g>
</svg>